<svg id="Layer_3" data-name="Layer 3" xmlns="http://www.w3.org/2000/svg" viewBox="0 0 934.54 1080"><defs><style>.cls-1{fill:#00895d;}.cls-2{fill:#fff;}</style></defs><title>line at icon tk</title><path class="cls-1" d="M543.15.2c-1.06,0-2.1,0-3.15,0s-2.09,0-3.15,0C471.46,1.64,72.73-19,72.73,138.44V615.53c0,271.35,290.37,403.76,437.67,459.09a84.12,84.12,0,0,0,59.2,0c147.3-55.33,437.67-187.74,437.67-459.09V138.44C1007.27-19,608.54,1.64,543.15.2Z" transform="translate(-72.73 0)"/><path class="cls-2" d="M672.39,603.6H492.29V270.83a15.5,15.5,0,0,0-15.5-15.5H407.61a15.51,15.51,0,0,0-15.51,15.5V688.28a15.51,15.51,0,0,0,15.51,15.51H672.39a15.51,15.51,0,0,0,15.51-15.51V619.11A15.51,15.51,0,0,0,672.39,603.6Z" transform="translate(-72.73 0)"/></svg>