<svg id="Layer_2" data-name="Layer 2" xmlns="http://www.w3.org/2000/svg" viewBox="0 0 1080 810.2"><defs><style>.cls-1{fill:#00895d;}.cls-2{fill:#36a852;}.cls-3{fill:#55b948;}.cls-4{fill:#01493c;}</style></defs><title>mail Icon tk</title><path class="cls-1" d="M73.64,810.2H245.45V392.93L0,208.83V736.56A73.61,73.61,0,0,0,73.64,810.2Z"/><path class="cls-2" d="M834.55,810.2h171.81A73.61,73.61,0,0,0,1080,736.56V208.83L834.55,392.93Z"/><path class="cls-1" d="M834.55,73.83v319.1L1080,208.83V110.65c0-91-103.89-143-176.73-88.36Z"/><path class="cls-3" d="M245.45,392.93V73.83L540,294.74,834.55,73.83v319.1L540,613.83Z"/><path class="cls-4" d="M0,110.65v98.18l245.45,184.1V73.83L176.73,22.29C103.89-32.32,0,19.65,0,110.65Z"/></svg>