<svg id="Layer_1" data-name="Layer 1" xmlns="http://www.w3.org/2000/svg" viewBox="0 0 1080 1085.19"><defs><style>.cls-1{fill:#55b948;}.cls-1,.cls-2,.cls-3{fill-rule:evenodd;}.cls-2{fill:#00634d;}.cls-3{fill:#fff;}</style></defs><title>WA Icon tk</title><g id="WA_Logo" data-name="WA Logo"><path class="cls-1" d="M922.65,155.11C821.12,53.46,686.11-2.54,542.25-2.6,245.86-2.6,4.63,238.62,4.51,535.11A536.75,536.75,0,0,0,76.29,803.94L0,1082.6l285.07-74.78a537.24,537.24,0,0,0,257,65.45h.22c296.37,0,537.62-241.24,537.74-537.73C1080.06,391.85,1024.17,256.75,922.65,155.11Z" transform="translate(0 2.6)"/></g><g id="WA_Logo-2" data-name="WA Logo"><path class="cls-2" d="M922.65,155.11C821.12,53.46,686.11-2.54,542.25-2.6,245.86-2.6,4.63,238.62,4.51,535.11A536.75,536.75,0,0,0,76.29,803.94L0,1082.6l285.07-74.78a537.24,537.24,0,0,0,257,65.45h.22c296.37,0,537.62-241.24,537.74-537.73C1080.06,391.85,1024.17,256.75,922.65,155.11ZM542.26,982.45h-.18a446.22,446.22,0,0,1-227.49-62.3l-16.32-9.68L129.11,954.84l45.15-164.93L163.64,773A445.94,445.94,0,0,1,95.3,535.14C95.4,288.71,295.9,88.23,542.44,88.23c119.38,0,231.6,46.59,316,131.07S989.25,416.08,989.21,535.5C989.11,782,788.61,982.45,542.26,982.45Z" transform="translate(0 2.6)"/></g><path class="cls-3" d="M813.17,663.41c-3.36-5.61-12.31-9-25.75-15.7S707.93,608.49,695.61,604s-21.28-6.73-30.23,6.72-34.71,43.72-42.55,52.69-15.67,10.09-29.11,3.36-56.73-20.91-108-66.69c-39.94-35.63-66.91-79.63-74.75-93.08s-.83-20.72,5.89-27.42c6.05-6,13.44-15.7,20.16-23.54s9-13.45,13.44-22.42,2.24-16.81-1.12-23.54-30.23-72.86-41.43-99.76c-10.91-26.2-22-22.65-30.23-23.07-7.83-.39-16.8-.47-25.75-.47s-23.52,3.36-35.83,16.81-47,46-47,112.09,48.14,130,54.86,139,94.75,144.68,229.53,202.88a770.57,770.57,0,0,0,76.6,28.3c32.19,10.23,61.48,8.79,84.63,5.33,25.82-3.86,79.5-32.5,90.7-63.89S816.53,669,813.17,663.41Z" transform="translate(0 2.6)"/></svg>