<svg version="1.0" xmlns="http://www.w3.org/2000/svg" width="4500.000000pt" height="4500.000000pt" viewBox="0 0 4500.000000 4500.000000" preserveAspectRatio="xMidYMid meet">
    <g transform="translate(0.000000,4500.000000) scale(0.100000,-0.100000)" fill="#000000" stroke="none">
        <path d="M21925 38399 c-1387 -48 -2785 -283 -4105 -689 -3498 -1075 -6525 -3335 -8567 -6395 -2085 -3126 -2988 -6885 -2557 -10650 475 -4155 2576 -7950 5859 -10585 1562 -1253 3354 -2203 5263 -2789 3337 -1026 6978 -921 10237 296 539 201 994 400 1535 669 655 327 1175 629 1765 1024 1723 1156 3209 2642 4365 4365 395 590 697 1110 1024 1765 322 646 559 1208 788 1865 1209 3478 1166 7337 -119 10780 -322 862 -748 1755 -1210 2535 -1079 1820 -2505 3407 -4193 4666 -2910 2172 -6437 3271 -10085 3143z m1135 -2609 c1680 -74 3252 -437 4783 -1106 1103 -483 2192 -1154 3125 -1928 893 -741 1701 -1608 2364 -2537 1614 -2261 2468 -4933 2468 -7719 0 -2786 -854 -5458 -2468 -7719 -671 -940 -1488 -1815 -2394 -2562 -1433 -1181 -3121 -2056 -4918 -2549 -1836 -504 -3792 -605 -5689 -295 -2413 395 -4679 1459 -6534 3068 -233 202 -384 343 -640 596 -684 676 -1228 1336 -1752 2126 -1767 2663 -2506 5860 -2095 9060 319 2482 1351 4843 2959 6772 434 522 967 1068 1478 1517 1549 1358 3413 2345 5413 2865 863 225 1831 369 2745 410 269 12 889 12 1155 1z"/>
        <path d="M22095 34259 c-3305 -109 -6386 -1596 -8550 -4124 -977 -1141 -1733 -2478 -2210 -3910 -799 -2393 -801 -5037 -7 -7430 609 -1835 1682 -3520 3078 -4837 113 -106 209 -194 215 -196 5 -2 9 880 9 2327 l0 2331 -1334 2 -1334 3 5262 4550 c2895 2503 5269 4550 5276 4550 7 0 2381 -2047 5276 -4550 l5262 -4550 -1334 -3 -1334 -2 0 -2331 c0 -1447 4 -2329 9 -2327 6 2 102 90 215 196 958 904 1778 2000 2392 3197 1239 2418 1594 5234 998 7916 -189 853 -464 1652 -851 2474 -97 207 -316 630 -337 653 -10 10 -16 1 -30 -45 -55 -177 -193 -486 -297 -666 -324 -557 -825 -1034 -1396 -1325 -395 -201 -768 -313 -1218 -364 -165 -18 -550 -15 -725 6 -787 95 -1474 429 -2030 985 -545 546 -866 1199 -977 1992 -24 176 -24 651 0 834 61 452 196 864 409 1245 425 759 1125 1330 1948 1590 91 28 174 55 184 59 15 6 -20 30 -160 113 -1936 1150 -4140 1713 -6409 1637z"/>
        <path d="M19423 22503 l-3073 -2657 0 -3691 0 -3691 163 -96 c855 -507 1797 -912 2757 -1187 1986 -568 4175 -594 6180 -75 614 159 1225 371 1810 629 375 165 924 449 1260 652 l115 69 2 3700 3 3699 -3065 2650 c-1686 1457 -3068 2651 -3072 2652 -5 2 -1391 -1193 -3080 -2654z"/>
    </g>
</svg>
